<mxfile host="app.diagrams.net" modified="2024-10-21T04:03:41.207Z" agent="Mozilla/5.0 (Windows NT 10.0; Win64; x64) AppleWebKit/537.36 (KHTML, like Gecko) Chrome/127.0.0.0 Safari/537.36 OPR/113.0.0.0" etag="RVVg-DCJ_D-4XspvHp9F" version="24.4.13" type="device" pages="2">
  <diagram name="Page-1" id="YX4GBI7kqbMjf_V6IDRE">
    <mxGraphModel dx="1249" dy="683" grid="1" gridSize="10" guides="1" tooltips="1" connect="1" arrows="1" fold="1" page="1" pageScale="1" pageWidth="850" pageHeight="1100" math="0" shadow="0">
      <root>
        <mxCell id="0" />
        <mxCell id="1" parent="0" />
        <mxCell id="QRX2uHRSCeNpsuwApHB3-1" value="Customer" style="whiteSpace=wrap;html=1;align=center;" vertex="1" parent="1">
          <mxGeometry x="40" y="140" width="100" height="40" as="geometry" />
        </mxCell>
        <mxCell id="QRX2uHRSCeNpsuwApHB3-2" value="Admin" style="whiteSpace=wrap;html=1;align=center;" vertex="1" parent="1">
          <mxGeometry x="680" y="140" width="100" height="40" as="geometry" />
        </mxCell>
        <mxCell id="QRX2uHRSCeNpsuwApHB3-3" value="Order" style="whiteSpace=wrap;html=1;align=center;" vertex="1" parent="1">
          <mxGeometry x="360" y="140" width="100" height="40" as="geometry" />
        </mxCell>
        <mxCell id="QRX2uHRSCeNpsuwApHB3-4" value="Item" style="whiteSpace=wrap;html=1;align=center;" vertex="1" parent="1">
          <mxGeometry x="650" y="230" width="100" height="40" as="geometry" />
        </mxCell>
        <mxCell id="QRX2uHRSCeNpsuwApHB3-5" value="Puts" style="shape=rhombus;perimeter=rhombusPerimeter;whiteSpace=wrap;html=1;align=center;" vertex="1" parent="1">
          <mxGeometry x="200" y="130" width="120" height="60" as="geometry" />
        </mxCell>
        <mxCell id="QRX2uHRSCeNpsuwApHB3-9" value="" style="edgeStyle=entityRelationEdgeStyle;fontSize=12;html=1;endArrow=ERmany;rounded=0;exitX=1;exitY=0.5;exitDx=0;exitDy=0;entryX=0;entryY=0.5;entryDx=0;entryDy=0;" edge="1" parent="1" source="QRX2uHRSCeNpsuwApHB3-1" target="QRX2uHRSCeNpsuwApHB3-5">
          <mxGeometry width="100" height="100" relative="1" as="geometry">
            <mxPoint x="120" y="270" as="sourcePoint" />
            <mxPoint x="220" y="170" as="targetPoint" />
          </mxGeometry>
        </mxCell>
        <mxCell id="QRX2uHRSCeNpsuwApHB3-10" value="" style="edgeStyle=entityRelationEdgeStyle;fontSize=12;html=1;endArrow=ERmany;rounded=0;exitX=1;exitY=0.5;exitDx=0;exitDy=0;entryX=0;entryY=0.5;entryDx=0;entryDy=0;" edge="1" parent="1" source="QRX2uHRSCeNpsuwApHB3-5" target="QRX2uHRSCeNpsuwApHB3-3">
          <mxGeometry width="100" height="100" relative="1" as="geometry">
            <mxPoint x="360" y="150" as="sourcePoint" />
            <mxPoint x="460" y="50" as="targetPoint" />
          </mxGeometry>
        </mxCell>
        <mxCell id="QRX2uHRSCeNpsuwApHB3-11" value="Manages" style="shape=rhombus;perimeter=rhombusPerimeter;whiteSpace=wrap;html=1;align=center;" vertex="1" parent="1">
          <mxGeometry x="510" y="130" width="120" height="60" as="geometry" />
        </mxCell>
        <mxCell id="QRX2uHRSCeNpsuwApHB3-12" value="" style="edgeStyle=entityRelationEdgeStyle;fontSize=12;html=1;endArrow=ERmany;rounded=0;entryX=0;entryY=0.5;entryDx=0;entryDy=0;exitX=0.5;exitY=1;exitDx=0;exitDy=0;" edge="1" parent="1" source="QRX2uHRSCeNpsuwApHB3-3" target="QRX2uHRSCeNpsuwApHB3-15">
          <mxGeometry width="100" height="100" relative="1" as="geometry">
            <mxPoint x="410" y="200" as="sourcePoint" />
            <mxPoint x="600" y="220" as="targetPoint" />
          </mxGeometry>
        </mxCell>
        <mxCell id="QRX2uHRSCeNpsuwApHB3-13" value="" style="edgeStyle=entityRelationEdgeStyle;fontSize=12;html=1;endArrow=ERone;endFill=1;rounded=0;exitX=0;exitY=0.5;exitDx=0;exitDy=0;entryX=1;entryY=0.5;entryDx=0;entryDy=0;" edge="1" parent="1" source="QRX2uHRSCeNpsuwApHB3-2" target="QRX2uHRSCeNpsuwApHB3-11">
          <mxGeometry width="100" height="100" relative="1" as="geometry">
            <mxPoint x="630" y="310" as="sourcePoint" />
            <mxPoint x="730" y="210" as="targetPoint" />
          </mxGeometry>
        </mxCell>
        <mxCell id="QRX2uHRSCeNpsuwApHB3-14" value="" style="edgeStyle=entityRelationEdgeStyle;fontSize=12;html=1;endArrow=ERone;endFill=1;rounded=0;exitX=0;exitY=0.5;exitDx=0;exitDy=0;entryX=1;entryY=0.5;entryDx=0;entryDy=0;" edge="1" parent="1" source="QRX2uHRSCeNpsuwApHB3-11" target="QRX2uHRSCeNpsuwApHB3-3">
          <mxGeometry width="100" height="100" relative="1" as="geometry">
            <mxPoint x="480" y="190" as="sourcePoint" />
            <mxPoint x="580" y="90" as="targetPoint" />
          </mxGeometry>
        </mxCell>
        <mxCell id="QRX2uHRSCeNpsuwApHB3-15" value="Has" style="shape=rhombus;perimeter=rhombusPerimeter;whiteSpace=wrap;html=1;align=center;" vertex="1" parent="1">
          <mxGeometry x="460" y="220" width="120" height="60" as="geometry" />
        </mxCell>
        <mxCell id="QRX2uHRSCeNpsuwApHB3-16" value="" style="edgeStyle=entityRelationEdgeStyle;fontSize=12;html=1;endArrow=ERmany;rounded=0;exitX=1;exitY=0.5;exitDx=0;exitDy=0;entryX=0;entryY=0.5;entryDx=0;entryDy=0;" edge="1" parent="1" source="QRX2uHRSCeNpsuwApHB3-15" target="QRX2uHRSCeNpsuwApHB3-4">
          <mxGeometry width="100" height="100" relative="1" as="geometry">
            <mxPoint x="580" y="400" as="sourcePoint" />
            <mxPoint x="680" y="300" as="targetPoint" />
          </mxGeometry>
        </mxCell>
        <mxCell id="QRX2uHRSCeNpsuwApHB3-17" value="Name" style="ellipse;whiteSpace=wrap;html=1;align=center;" vertex="1" parent="1">
          <mxGeometry x="10" y="80" width="70" height="20" as="geometry" />
        </mxCell>
        <mxCell id="QRX2uHRSCeNpsuwApHB3-18" value="ID" style="ellipse;whiteSpace=wrap;html=1;align=center;" vertex="1" parent="1">
          <mxGeometry x="120" y="80" width="70" height="20" as="geometry" />
        </mxCell>
        <mxCell id="QRX2uHRSCeNpsuwApHB3-19" value="" style="endArrow=none;html=1;rounded=0;entryX=0.5;entryY=1;entryDx=0;entryDy=0;exitX=0;exitY=0;exitDx=0;exitDy=0;" edge="1" parent="1" source="QRX2uHRSCeNpsuwApHB3-1" target="QRX2uHRSCeNpsuwApHB3-17">
          <mxGeometry relative="1" as="geometry">
            <mxPoint x="10" y="160" as="sourcePoint" />
            <mxPoint x="170" y="160" as="targetPoint" />
          </mxGeometry>
        </mxCell>
        <mxCell id="QRX2uHRSCeNpsuwApHB3-20" value="" style="endArrow=none;html=1;rounded=0;exitX=1;exitY=0;exitDx=0;exitDy=0;entryX=0.5;entryY=1;entryDx=0;entryDy=0;" edge="1" parent="1" source="QRX2uHRSCeNpsuwApHB3-1" target="QRX2uHRSCeNpsuwApHB3-18">
          <mxGeometry relative="1" as="geometry">
            <mxPoint x="210" y="210" as="sourcePoint" />
            <mxPoint x="370" y="210" as="targetPoint" />
          </mxGeometry>
        </mxCell>
        <mxCell id="QRX2uHRSCeNpsuwApHB3-21" value="ID" style="ellipse;whiteSpace=wrap;html=1;align=center;" vertex="1" parent="1">
          <mxGeometry x="300" y="50" width="80" height="30" as="geometry" />
        </mxCell>
        <mxCell id="QRX2uHRSCeNpsuwApHB3-22" value="Status" style="ellipse;whiteSpace=wrap;html=1;align=center;" vertex="1" parent="1">
          <mxGeometry x="420" y="50" width="80" height="25" as="geometry" />
        </mxCell>
        <mxCell id="QRX2uHRSCeNpsuwApHB3-23" value="DateCreated" style="ellipse;whiteSpace=wrap;html=1;align=center;" vertex="1" parent="1">
          <mxGeometry x="360" y="10" width="80" height="30" as="geometry" />
        </mxCell>
        <mxCell id="QRX2uHRSCeNpsuwApHB3-25" value="" style="endArrow=none;html=1;rounded=0;exitX=0;exitY=0;exitDx=0;exitDy=0;entryX=0.5;entryY=1;entryDx=0;entryDy=0;" edge="1" parent="1" source="QRX2uHRSCeNpsuwApHB3-3" target="QRX2uHRSCeNpsuwApHB3-21">
          <mxGeometry relative="1" as="geometry">
            <mxPoint x="390" y="110" as="sourcePoint" />
            <mxPoint x="550" y="110" as="targetPoint" />
          </mxGeometry>
        </mxCell>
        <mxCell id="QRX2uHRSCeNpsuwApHB3-26" value="" style="endArrow=none;html=1;rounded=0;exitX=0.5;exitY=0;exitDx=0;exitDy=0;entryX=0.5;entryY=1;entryDx=0;entryDy=0;" edge="1" parent="1" source="QRX2uHRSCeNpsuwApHB3-3" target="QRX2uHRSCeNpsuwApHB3-22">
          <mxGeometry relative="1" as="geometry">
            <mxPoint x="450" y="110" as="sourcePoint" />
            <mxPoint x="610" y="110" as="targetPoint" />
          </mxGeometry>
        </mxCell>
        <mxCell id="QRX2uHRSCeNpsuwApHB3-27" value="" style="endArrow=none;html=1;rounded=0;exitX=0.25;exitY=0;exitDx=0;exitDy=0;entryX=0.5;entryY=1;entryDx=0;entryDy=0;" edge="1" parent="1" source="QRX2uHRSCeNpsuwApHB3-3" target="QRX2uHRSCeNpsuwApHB3-23">
          <mxGeometry relative="1" as="geometry">
            <mxPoint x="490" y="110" as="sourcePoint" />
            <mxPoint x="650" y="110" as="targetPoint" />
          </mxGeometry>
        </mxCell>
        <mxCell id="QRX2uHRSCeNpsuwApHB3-28" value="Name" style="ellipse;whiteSpace=wrap;html=1;align=center;" vertex="1" parent="1">
          <mxGeometry x="650" y="30" width="60" height="30" as="geometry" />
        </mxCell>
        <mxCell id="QRX2uHRSCeNpsuwApHB3-29" value="ID" style="ellipse;whiteSpace=wrap;html=1;align=center;" vertex="1" parent="1">
          <mxGeometry x="720" y="30" width="70" height="25" as="geometry" />
        </mxCell>
        <mxCell id="QRX2uHRSCeNpsuwApHB3-30" value="" style="endArrow=none;html=1;rounded=0;exitX=0;exitY=0;exitDx=0;exitDy=0;entryX=0.5;entryY=1;entryDx=0;entryDy=0;" edge="1" parent="1" source="QRX2uHRSCeNpsuwApHB3-2" target="QRX2uHRSCeNpsuwApHB3-28">
          <mxGeometry relative="1" as="geometry">
            <mxPoint x="770" y="100" as="sourcePoint" />
            <mxPoint x="930" y="100" as="targetPoint" />
          </mxGeometry>
        </mxCell>
        <mxCell id="QRX2uHRSCeNpsuwApHB3-31" value="" style="endArrow=none;html=1;rounded=0;exitX=0.25;exitY=0;exitDx=0;exitDy=0;entryX=0.5;entryY=1;entryDx=0;entryDy=0;" edge="1" parent="1" source="QRX2uHRSCeNpsuwApHB3-2" target="QRX2uHRSCeNpsuwApHB3-29">
          <mxGeometry relative="1" as="geometry">
            <mxPoint x="770" y="110" as="sourcePoint" />
            <mxPoint x="930" y="110" as="targetPoint" />
          </mxGeometry>
        </mxCell>
        <mxCell id="QRX2uHRSCeNpsuwApHB3-33" value="ID" style="ellipse;whiteSpace=wrap;html=1;align=center;" vertex="1" parent="1">
          <mxGeometry x="600" y="300" width="80" height="20" as="geometry" />
        </mxCell>
        <mxCell id="QRX2uHRSCeNpsuwApHB3-34" value="Name" style="ellipse;whiteSpace=wrap;html=1;align=center;" vertex="1" parent="1">
          <mxGeometry x="740" y="300" width="60" height="30" as="geometry" />
        </mxCell>
        <mxCell id="QRX2uHRSCeNpsuwApHB3-35" value="Price" style="ellipse;whiteSpace=wrap;html=1;align=center;" vertex="1" parent="1">
          <mxGeometry x="680" y="327.5" width="60" height="20" as="geometry" />
        </mxCell>
        <mxCell id="QRX2uHRSCeNpsuwApHB3-36" value="" style="endArrow=none;html=1;rounded=0;exitX=0;exitY=1;exitDx=0;exitDy=0;entryX=0.5;entryY=0;entryDx=0;entryDy=0;" edge="1" parent="1" source="QRX2uHRSCeNpsuwApHB3-4" target="QRX2uHRSCeNpsuwApHB3-33">
          <mxGeometry relative="1" as="geometry">
            <mxPoint x="630" y="300" as="sourcePoint" />
            <mxPoint x="790" y="300" as="targetPoint" />
          </mxGeometry>
        </mxCell>
        <mxCell id="QRX2uHRSCeNpsuwApHB3-37" value="" style="endArrow=none;html=1;rounded=0;exitX=1;exitY=1;exitDx=0;exitDy=0;entryX=0.5;entryY=0;entryDx=0;entryDy=0;" edge="1" parent="1" source="QRX2uHRSCeNpsuwApHB3-4" target="QRX2uHRSCeNpsuwApHB3-34">
          <mxGeometry relative="1" as="geometry">
            <mxPoint x="750" y="300" as="sourcePoint" />
            <mxPoint x="910" y="300" as="targetPoint" />
          </mxGeometry>
        </mxCell>
        <mxCell id="QRX2uHRSCeNpsuwApHB3-38" value="" style="endArrow=none;html=1;rounded=0;exitX=0.5;exitY=1;exitDx=0;exitDy=0;entryX=0.5;entryY=0;entryDx=0;entryDy=0;" edge="1" parent="1" source="QRX2uHRSCeNpsuwApHB3-4" target="QRX2uHRSCeNpsuwApHB3-35">
          <mxGeometry relative="1" as="geometry">
            <mxPoint x="700" y="300" as="sourcePoint" />
            <mxPoint x="860" y="300" as="targetPoint" />
          </mxGeometry>
        </mxCell>
        <mxCell id="QRX2uHRSCeNpsuwApHB3-39" value="User" style="swimlane;fontStyle=1;align=center;verticalAlign=top;childLayout=stackLayout;horizontal=1;startSize=26;horizontalStack=0;resizeParent=1;resizeParentMax=0;resizeLast=0;collapsible=1;marginBottom=0;whiteSpace=wrap;html=1;" vertex="1" parent="1">
          <mxGeometry x="15" y="500" width="160" height="170" as="geometry" />
        </mxCell>
        <mxCell id="QRX2uHRSCeNpsuwApHB3-40" value="- fName: String&lt;div&gt;-lName: String&lt;br&gt;&lt;div&gt;-id: int&lt;/div&gt;&lt;/div&gt;" style="text;strokeColor=none;fillColor=none;align=left;verticalAlign=top;spacingLeft=4;spacingRight=4;overflow=hidden;rotatable=0;points=[[0,0.5],[1,0.5]];portConstraint=eastwest;whiteSpace=wrap;html=1;" vertex="1" parent="QRX2uHRSCeNpsuwApHB3-39">
          <mxGeometry y="26" width="160" height="54" as="geometry" />
        </mxCell>
        <mxCell id="QRX2uHRSCeNpsuwApHB3-41" value="" style="line;strokeWidth=1;fillColor=none;align=left;verticalAlign=middle;spacingTop=-1;spacingLeft=3;spacingRight=3;rotatable=0;labelPosition=right;points=[];portConstraint=eastwest;strokeColor=inherit;" vertex="1" parent="QRX2uHRSCeNpsuwApHB3-39">
          <mxGeometry y="80" width="160" height="8" as="geometry" />
        </mxCell>
        <mxCell id="QRX2uHRSCeNpsuwApHB3-42" value="&lt;br&gt;&lt;div&gt;+search(String): Order&lt;/div&gt;&lt;div&gt;+cancelOrder(): void&lt;/div&gt;" style="text;strokeColor=none;fillColor=none;align=left;verticalAlign=top;spacingLeft=4;spacingRight=4;overflow=hidden;rotatable=0;points=[[0,0.5],[1,0.5]];portConstraint=eastwest;whiteSpace=wrap;html=1;" vertex="1" parent="QRX2uHRSCeNpsuwApHB3-39">
          <mxGeometry y="88" width="160" height="82" as="geometry" />
        </mxCell>
        <mxCell id="QRX2uHRSCeNpsuwApHB3-43" value="Order" style="swimlane;fontStyle=1;align=center;verticalAlign=top;childLayout=stackLayout;horizontal=1;startSize=26;horizontalStack=0;resizeParent=1;resizeParentMax=0;resizeLast=0;collapsible=1;marginBottom=0;whiteSpace=wrap;html=1;" vertex="1" parent="1">
          <mxGeometry x="505" y="510" width="160" height="160" as="geometry" />
        </mxCell>
        <mxCell id="QRX2uHRSCeNpsuwApHB3-44" value="+id: int&lt;div&gt;+dateCreated: LocalDateTime&lt;/div&gt;&lt;div&gt;+status: Status&lt;/div&gt;" style="text;strokeColor=none;fillColor=none;align=left;verticalAlign=top;spacingLeft=4;spacingRight=4;overflow=hidden;rotatable=0;points=[[0,0.5],[1,0.5]];portConstraint=eastwest;whiteSpace=wrap;html=1;" vertex="1" parent="QRX2uHRSCeNpsuwApHB3-43">
          <mxGeometry y="26" width="160" height="64" as="geometry" />
        </mxCell>
        <mxCell id="QRX2uHRSCeNpsuwApHB3-45" value="" style="line;strokeWidth=1;fillColor=none;align=left;verticalAlign=middle;spacingTop=-1;spacingLeft=3;spacingRight=3;rotatable=0;labelPosition=right;points=[];portConstraint=eastwest;strokeColor=inherit;" vertex="1" parent="QRX2uHRSCeNpsuwApHB3-43">
          <mxGeometry y="90" width="160" height="8" as="geometry" />
        </mxCell>
        <mxCell id="QRX2uHRSCeNpsuwApHB3-46" value="+addItem(Item): void&lt;div&gt;+removeItem(Item): void&lt;/div&gt;&lt;div&gt;&lt;br&gt;&lt;/div&gt;" style="text;strokeColor=none;fillColor=none;align=left;verticalAlign=top;spacingLeft=4;spacingRight=4;overflow=hidden;rotatable=0;points=[[0,0.5],[1,0.5]];portConstraint=eastwest;whiteSpace=wrap;html=1;" vertex="1" parent="QRX2uHRSCeNpsuwApHB3-43">
          <mxGeometry y="98" width="160" height="62" as="geometry" />
        </mxCell>
        <mxCell id="QRX2uHRSCeNpsuwApHB3-47" value="Admin" style="swimlane;fontStyle=1;align=center;verticalAlign=top;childLayout=stackLayout;horizontal=1;startSize=26;horizontalStack=0;resizeParent=1;resizeParentMax=0;resizeLast=0;collapsible=1;marginBottom=0;whiteSpace=wrap;html=1;" vertex="1" parent="1">
          <mxGeometry x="250" y="770" width="160" height="140" as="geometry" />
        </mxCell>
        <mxCell id="QRX2uHRSCeNpsuwApHB3-48" value="&lt;div&gt;-assignedOrders: List&amp;lt;Order&amp;gt;&lt;/div&gt;" style="text;strokeColor=none;fillColor=none;align=left;verticalAlign=top;spacingLeft=4;spacingRight=4;overflow=hidden;rotatable=0;points=[[0,0.5],[1,0.5]];portConstraint=eastwest;whiteSpace=wrap;html=1;" vertex="1" parent="QRX2uHRSCeNpsuwApHB3-47">
          <mxGeometry y="26" width="160" height="54" as="geometry" />
        </mxCell>
        <mxCell id="QRX2uHRSCeNpsuwApHB3-49" value="" style="line;strokeWidth=1;fillColor=none;align=left;verticalAlign=middle;spacingTop=-1;spacingLeft=3;spacingRight=3;rotatable=0;labelPosition=right;points=[];portConstraint=eastwest;strokeColor=inherit;" vertex="1" parent="QRX2uHRSCeNpsuwApHB3-47">
          <mxGeometry y="80" width="160" height="8" as="geometry" />
        </mxCell>
        <mxCell id="QRX2uHRSCeNpsuwApHB3-50" value="+processOrder(Order): void&lt;div&gt;+clearOrder(int): void&lt;/div&gt;" style="text;strokeColor=none;fillColor=none;align=left;verticalAlign=top;spacingLeft=4;spacingRight=4;overflow=hidden;rotatable=0;points=[[0,0.5],[1,0.5]];portConstraint=eastwest;whiteSpace=wrap;html=1;" vertex="1" parent="QRX2uHRSCeNpsuwApHB3-47">
          <mxGeometry y="88" width="160" height="52" as="geometry" />
        </mxCell>
        <mxCell id="QRX2uHRSCeNpsuwApHB3-51" value="Item" style="swimlane;fontStyle=1;align=center;verticalAlign=top;childLayout=stackLayout;horizontal=1;startSize=26;horizontalStack=0;resizeParent=1;resizeParentMax=0;resizeLast=0;collapsible=1;marginBottom=0;whiteSpace=wrap;html=1;" vertex="1" parent="1">
          <mxGeometry x="505" y="840" width="160" height="124" as="geometry" />
        </mxCell>
        <mxCell id="QRX2uHRSCeNpsuwApHB3-52" value="-name: String&lt;div&gt;-price: double&lt;/div&gt;&lt;div&gt;-id: int&lt;/div&gt;" style="text;strokeColor=none;fillColor=none;align=left;verticalAlign=top;spacingLeft=4;spacingRight=4;overflow=hidden;rotatable=0;points=[[0,0.5],[1,0.5]];portConstraint=eastwest;whiteSpace=wrap;html=1;" vertex="1" parent="QRX2uHRSCeNpsuwApHB3-51">
          <mxGeometry y="26" width="160" height="64" as="geometry" />
        </mxCell>
        <mxCell id="QRX2uHRSCeNpsuwApHB3-53" value="" style="line;strokeWidth=1;fillColor=none;align=left;verticalAlign=middle;spacingTop=-1;spacingLeft=3;spacingRight=3;rotatable=0;labelPosition=right;points=[];portConstraint=eastwest;strokeColor=inherit;" vertex="1" parent="QRX2uHRSCeNpsuwApHB3-51">
          <mxGeometry y="90" width="160" height="8" as="geometry" />
        </mxCell>
        <mxCell id="QRX2uHRSCeNpsuwApHB3-54" value="+ method(type): type" style="text;strokeColor=none;fillColor=none;align=left;verticalAlign=top;spacingLeft=4;spacingRight=4;overflow=hidden;rotatable=0;points=[[0,0.5],[1,0.5]];portConstraint=eastwest;whiteSpace=wrap;html=1;" vertex="1" parent="QRX2uHRSCeNpsuwApHB3-51">
          <mxGeometry y="98" width="160" height="26" as="geometry" />
        </mxCell>
        <mxCell id="QRX2uHRSCeNpsuwApHB3-63" value="Extends" style="endArrow=block;endSize=16;endFill=0;html=1;rounded=0;exitX=-0.006;exitY=0.13;exitDx=0;exitDy=0;entryX=0.481;entryY=1;entryDx=0;entryDy=0;entryPerimeter=0;exitPerimeter=0;" edge="1" parent="1" source="QRX2uHRSCeNpsuwApHB3-48" target="QRX2uHRSCeNpsuwApHB3-42">
          <mxGeometry width="160" relative="1" as="geometry">
            <mxPoint x="215" y="690" as="sourcePoint" />
            <mxPoint x="375" y="690" as="targetPoint" />
            <Array as="points">
              <mxPoint x="95" y="803" />
            </Array>
          </mxGeometry>
        </mxCell>
        <mxCell id="QRX2uHRSCeNpsuwApHB3-64" value="" style="endArrow=diamondThin;endFill=0;endSize=24;html=1;rounded=0;exitX=0.45;exitY=1.048;exitDx=0;exitDy=0;exitPerimeter=0;entryX=0.5;entryY=0;entryDx=0;entryDy=0;" edge="1" parent="1" source="QRX2uHRSCeNpsuwApHB3-46" target="QRX2uHRSCeNpsuwApHB3-51">
          <mxGeometry width="160" relative="1" as="geometry">
            <mxPoint x="365" y="710" as="sourcePoint" />
            <mxPoint x="525" y="710" as="targetPoint" />
          </mxGeometry>
        </mxCell>
        <mxCell id="QRX2uHRSCeNpsuwApHB3-68" value="Customer" style="swimlane;fontStyle=1;align=center;verticalAlign=top;childLayout=stackLayout;horizontal=1;startSize=26;horizontalStack=0;resizeParent=1;resizeParentMax=0;resizeLast=0;collapsible=1;marginBottom=0;whiteSpace=wrap;html=1;" vertex="1" parent="1">
          <mxGeometry x="250" y="510" width="160" height="130" as="geometry" />
        </mxCell>
        <mxCell id="QRX2uHRSCeNpsuwApHB3-70" value="" style="line;strokeWidth=1;fillColor=none;align=left;verticalAlign=middle;spacingTop=-1;spacingLeft=3;spacingRight=3;rotatable=0;labelPosition=right;points=[];portConstraint=eastwest;strokeColor=inherit;" vertex="1" parent="QRX2uHRSCeNpsuwApHB3-68">
          <mxGeometry y="26" width="160" height="54" as="geometry" />
        </mxCell>
        <mxCell id="QRX2uHRSCeNpsuwApHB3-71" value="+order(int, OrderSystem):&amp;nbsp;&lt;div&gt;Order&lt;/div&gt;&lt;div&gt;&lt;br&gt;&lt;/div&gt;" style="text;strokeColor=none;fillColor=none;align=left;verticalAlign=top;spacingLeft=4;spacingRight=4;overflow=hidden;rotatable=0;points=[[0,0.5],[1,0.5]];portConstraint=eastwest;whiteSpace=wrap;html=1;" vertex="1" parent="QRX2uHRSCeNpsuwApHB3-68">
          <mxGeometry y="80" width="160" height="50" as="geometry" />
        </mxCell>
        <mxCell id="QRX2uHRSCeNpsuwApHB3-72" value="Extends" style="endArrow=block;endSize=16;endFill=0;html=1;rounded=0;exitX=-0.025;exitY=-0.049;exitDx=0;exitDy=0;entryX=1.019;entryY=1.019;entryDx=0;entryDy=0;entryPerimeter=0;exitPerimeter=0;" edge="1" parent="1" source="QRX2uHRSCeNpsuwApHB3-71" target="QRX2uHRSCeNpsuwApHB3-40">
          <mxGeometry width="160" relative="1" as="geometry">
            <mxPoint x="265" y="680" as="sourcePoint" />
            <mxPoint x="425" y="680" as="targetPoint" />
          </mxGeometry>
        </mxCell>
        <mxCell id="QRX2uHRSCeNpsuwApHB3-73" value="" style="endArrow=open;endFill=1;endSize=12;html=1;rounded=0;exitX=0.994;exitY=0.5;exitDx=0;exitDy=0;exitPerimeter=0;entryX=-0.012;entryY=0.906;entryDx=0;entryDy=0;entryPerimeter=0;" edge="1" parent="1" source="QRX2uHRSCeNpsuwApHB3-49" target="QRX2uHRSCeNpsuwApHB3-44">
          <mxGeometry width="160" relative="1" as="geometry">
            <mxPoint x="445" y="730" as="sourcePoint" />
            <mxPoint x="605" y="730" as="targetPoint" />
          </mxGeometry>
        </mxCell>
        <mxCell id="QRX2uHRSCeNpsuwApHB3-74" value="" style="endArrow=open;endFill=1;endSize=12;html=1;rounded=0;exitX=1.006;exitY=0.157;exitDx=0;exitDy=0;exitPerimeter=0;entryX=0.013;entryY=0.781;entryDx=0;entryDy=0;entryPerimeter=0;" edge="1" parent="1" source="QRX2uHRSCeNpsuwApHB3-71" target="QRX2uHRSCeNpsuwApHB3-44">
          <mxGeometry width="160" relative="1" as="geometry">
            <mxPoint x="435" y="550" as="sourcePoint" />
            <mxPoint x="595" y="550" as="targetPoint" />
          </mxGeometry>
        </mxCell>
        <mxCell id="QRX2uHRSCeNpsuwApHB3-75" value="Driver" style="whiteSpace=wrap;html=1;align=center;" vertex="1" parent="1">
          <mxGeometry x="15" y="240" width="100" height="40" as="geometry" />
        </mxCell>
        <mxCell id="QRX2uHRSCeNpsuwApHB3-76" value="" style="edgeStyle=entityRelationEdgeStyle;fontSize=12;html=1;endArrow=ERmandOne;startArrow=ERmandOne;rounded=0;exitX=1;exitY=0.5;exitDx=0;exitDy=0;entryX=0;entryY=0.5;entryDx=0;entryDy=0;" edge="1" parent="1" source="QRX2uHRSCeNpsuwApHB3-75" target="QRX2uHRSCeNpsuwApHB3-77">
          <mxGeometry width="100" height="100" relative="1" as="geometry">
            <mxPoint x="220" y="340" as="sourcePoint" />
            <mxPoint x="240" y="250" as="targetPoint" />
            <Array as="points">
              <mxPoint x="360" y="270" />
            </Array>
          </mxGeometry>
        </mxCell>
        <mxCell id="QRX2uHRSCeNpsuwApHB3-78" value="" style="edgeStyle=orthogonalEdgeStyle;rounded=0;orthogonalLoop=1;jettySize=auto;html=1;" edge="1" parent="1" source="QRX2uHRSCeNpsuwApHB3-77" target="QRX2uHRSCeNpsuwApHB3-75">
          <mxGeometry relative="1" as="geometry" />
        </mxCell>
        <mxCell id="QRX2uHRSCeNpsuwApHB3-77" value="Delivers" style="shape=rhombus;perimeter=rhombusPerimeter;whiteSpace=wrap;html=1;align=center;" vertex="1" parent="1">
          <mxGeometry x="200" y="220" width="120" height="60" as="geometry" />
        </mxCell>
        <mxCell id="QRX2uHRSCeNpsuwApHB3-79" value="" style="edgeStyle=entityRelationEdgeStyle;fontSize=12;html=1;endArrow=ERone;endFill=1;rounded=0;exitX=1;exitY=0.5;exitDx=0;exitDy=0;entryX=0;entryY=1;entryDx=0;entryDy=0;" edge="1" parent="1" source="QRX2uHRSCeNpsuwApHB3-77" target="QRX2uHRSCeNpsuwApHB3-3">
          <mxGeometry width="100" height="100" relative="1" as="geometry">
            <mxPoint x="340" y="330" as="sourcePoint" />
            <mxPoint x="440" y="230" as="targetPoint" />
          </mxGeometry>
        </mxCell>
        <mxCell id="QRX2uHRSCeNpsuwApHB3-80" value="Driver" style="swimlane;fontStyle=1;align=center;verticalAlign=top;childLayout=stackLayout;horizontal=1;startSize=26;horizontalStack=0;resizeParent=1;resizeParentMax=0;resizeLast=0;collapsible=1;marginBottom=0;whiteSpace=wrap;html=1;" vertex="1" parent="1">
          <mxGeometry x="280" y="340" width="160" height="110" as="geometry" />
        </mxCell>
        <mxCell id="QRX2uHRSCeNpsuwApHB3-81" value="+ field: type" style="text;strokeColor=none;fillColor=none;align=left;verticalAlign=top;spacingLeft=4;spacingRight=4;overflow=hidden;rotatable=0;points=[[0,0.5],[1,0.5]];portConstraint=eastwest;whiteSpace=wrap;html=1;" vertex="1" parent="QRX2uHRSCeNpsuwApHB3-80">
          <mxGeometry y="26" width="160" height="26" as="geometry" />
        </mxCell>
        <mxCell id="QRX2uHRSCeNpsuwApHB3-82" value="" style="line;strokeWidth=1;fillColor=none;align=left;verticalAlign=middle;spacingTop=-1;spacingLeft=3;spacingRight=3;rotatable=0;labelPosition=right;points=[];portConstraint=eastwest;strokeColor=inherit;" vertex="1" parent="QRX2uHRSCeNpsuwApHB3-80">
          <mxGeometry y="52" width="160" height="8" as="geometry" />
        </mxCell>
        <mxCell id="QRX2uHRSCeNpsuwApHB3-83" value="+deliver(): Order&lt;div&gt;+receiveOrder(): Order&amp;nbsp;&lt;/div&gt;" style="text;strokeColor=none;fillColor=none;align=left;verticalAlign=top;spacingLeft=4;spacingRight=4;overflow=hidden;rotatable=0;points=[[0,0.5],[1,0.5]];portConstraint=eastwest;whiteSpace=wrap;html=1;" vertex="1" parent="QRX2uHRSCeNpsuwApHB3-80">
          <mxGeometry y="60" width="160" height="50" as="geometry" />
        </mxCell>
        <mxCell id="QRX2uHRSCeNpsuwApHB3-84" value="Extends" style="endArrow=block;endSize=16;endFill=0;html=1;rounded=0;entryX=0.5;entryY=0;entryDx=0;entryDy=0;exitX=-0.019;exitY=-0.06;exitDx=0;exitDy=0;exitPerimeter=0;" edge="1" parent="1" source="QRX2uHRSCeNpsuwApHB3-83" target="QRX2uHRSCeNpsuwApHB3-39">
          <mxGeometry width="160" relative="1" as="geometry">
            <mxPoint x="120" y="400" as="sourcePoint" />
            <mxPoint x="280" y="400" as="targetPoint" />
            <Array as="points">
              <mxPoint x="100" y="400" />
            </Array>
          </mxGeometry>
        </mxCell>
        <mxCell id="QRX2uHRSCeNpsuwApHB3-85" value="" style="endArrow=open;endFill=1;endSize=12;html=1;rounded=0;exitX=0.988;exitY=1.154;exitDx=0;exitDy=0;exitPerimeter=0;entryX=-0.031;entryY=0.688;entryDx=0;entryDy=0;entryPerimeter=0;" edge="1" parent="1" source="QRX2uHRSCeNpsuwApHB3-81" target="QRX2uHRSCeNpsuwApHB3-44">
          <mxGeometry width="160" relative="1" as="geometry">
            <mxPoint x="520" y="410" as="sourcePoint" />
            <mxPoint x="680" y="410" as="targetPoint" />
          </mxGeometry>
        </mxCell>
      </root>
    </mxGraphModel>
  </diagram>
  <diagram id="Igny0tqCEcn3qLuJyPUk" name="Page-2">
    <mxGraphModel dx="1249" dy="683" grid="1" gridSize="10" guides="1" tooltips="1" connect="1" arrows="1" fold="1" page="1" pageScale="1" pageWidth="850" pageHeight="1100" math="0" shadow="0">
      <root>
        <mxCell id="0" />
        <mxCell id="1" parent="0" />
        <mxCell id="aJS2GjgJOoIlMei6poJU-3" value="Customer" style="html=1;whiteSpace=wrap;" vertex="1" parent="1">
          <mxGeometry x="70" y="90" width="110" height="50" as="geometry" />
        </mxCell>
        <mxCell id="aJS2GjgJOoIlMei6poJU-4" value="Admin" style="html=1;whiteSpace=wrap;" vertex="1" parent="1">
          <mxGeometry x="340" y="90" width="110" height="50" as="geometry" />
        </mxCell>
        <mxCell id="aJS2GjgJOoIlMei6poJU-5" value="Driver" style="html=1;whiteSpace=wrap;" vertex="1" parent="1">
          <mxGeometry x="600" y="90" width="110" height="50" as="geometry" />
        </mxCell>
        <mxCell id="aJS2GjgJOoIlMei6poJU-6" value="Place order" style="rounded=1;whiteSpace=wrap;html=1;" vertex="1" parent="1">
          <mxGeometry x="85" y="170" width="95" height="40" as="geometry" />
        </mxCell>
        <mxCell id="aJS2GjgJOoIlMei6poJU-7" value="Process order" style="rounded=1;whiteSpace=wrap;html=1;" vertex="1" parent="1">
          <mxGeometry x="350" y="260" width="100" height="40" as="geometry" />
        </mxCell>
        <mxCell id="MyNQWug4072BYo_ai6gP-1" value="receive Order" style="rounded=1;whiteSpace=wrap;html=1;" vertex="1" parent="1">
          <mxGeometry x="620" y="290" width="90" height="40" as="geometry" />
        </mxCell>
        <mxCell id="MyNQWug4072BYo_ai6gP-2" value="Deliver order" style="rounded=1;whiteSpace=wrap;html=1;" vertex="1" parent="1">
          <mxGeometry x="620" y="390" width="90" height="30" as="geometry" />
        </mxCell>
        <mxCell id="MyNQWug4072BYo_ai6gP-3" value="Receive Order" style="rounded=1;whiteSpace=wrap;html=1;" vertex="1" parent="1">
          <mxGeometry x="85" y="440" width="90" height="40" as="geometry" />
        </mxCell>
        <mxCell id="MyNQWug4072BYo_ai6gP-5" value="" style="endArrow=none;dashed=1;html=1;rounded=0;exitX=1;exitY=0.5;exitDx=0;exitDy=0;entryX=0;entryY=0.5;entryDx=0;entryDy=0;" edge="1" parent="1" source="aJS2GjgJOoIlMei6poJU-7" target="MyNQWug4072BYo_ai6gP-1">
          <mxGeometry width="50" height="50" relative="1" as="geometry">
            <mxPoint x="510" y="310" as="sourcePoint" />
            <mxPoint x="560" y="260" as="targetPoint" />
            <Array as="points">
              <mxPoint x="550" y="280" />
            </Array>
          </mxGeometry>
        </mxCell>
        <mxCell id="MyNQWug4072BYo_ai6gP-6" value="" style="endArrow=none;dashed=1;html=1;rounded=0;exitX=0.5;exitY=1;exitDx=0;exitDy=0;entryX=0.5;entryY=0;entryDx=0;entryDy=0;" edge="1" parent="1" source="MyNQWug4072BYo_ai6gP-1" target="MyNQWug4072BYo_ai6gP-2">
          <mxGeometry width="50" height="50" relative="1" as="geometry">
            <mxPoint x="730" y="330" as="sourcePoint" />
            <mxPoint x="780" y="280" as="targetPoint" />
          </mxGeometry>
        </mxCell>
        <mxCell id="MyNQWug4072BYo_ai6gP-7" value="" style="endArrow=none;dashed=1;html=1;rounded=0;exitX=1;exitY=0.5;exitDx=0;exitDy=0;entryX=0;entryY=0.5;entryDx=0;entryDy=0;" edge="1" parent="1" source="MyNQWug4072BYo_ai6gP-3" target="MyNQWug4072BYo_ai6gP-2">
          <mxGeometry width="50" height="50" relative="1" as="geometry">
            <mxPoint x="410" y="460" as="sourcePoint" />
            <mxPoint x="460" y="410" as="targetPoint" />
            <Array as="points">
              <mxPoint x="490" y="460" />
            </Array>
          </mxGeometry>
        </mxCell>
        <mxCell id="MyNQWug4072BYo_ai6gP-8" value="Pay" style="rounded=1;whiteSpace=wrap;html=1;" vertex="1" parent="1">
          <mxGeometry x="85" y="260" width="90" height="40" as="geometry" />
        </mxCell>
        <mxCell id="MyNQWug4072BYo_ai6gP-9" value="" style="endArrow=none;dashed=1;html=1;rounded=0;entryX=0.5;entryY=1;entryDx=0;entryDy=0;exitX=0.5;exitY=0;exitDx=0;exitDy=0;" edge="1" parent="1" source="MyNQWug4072BYo_ai6gP-8" target="aJS2GjgJOoIlMei6poJU-6">
          <mxGeometry width="50" height="50" relative="1" as="geometry">
            <mxPoint x="170" y="290" as="sourcePoint" />
            <mxPoint x="220" y="240" as="targetPoint" />
          </mxGeometry>
        </mxCell>
        <mxCell id="MyNQWug4072BYo_ai6gP-10" value="" style="endArrow=none;dashed=1;html=1;rounded=0;exitX=1;exitY=0.5;exitDx=0;exitDy=0;entryX=0;entryY=0.5;entryDx=0;entryDy=0;" edge="1" parent="1" source="MyNQWug4072BYo_ai6gP-8" target="aJS2GjgJOoIlMei6poJU-7">
          <mxGeometry width="50" height="50" relative="1" as="geometry">
            <mxPoint x="230" y="320" as="sourcePoint" />
            <mxPoint x="280" y="270" as="targetPoint" />
          </mxGeometry>
        </mxCell>
        <mxCell id="MyNQWug4072BYo_ai6gP-11" value="cancel" style="rhombus;whiteSpace=wrap;html=1;" vertex="1" parent="1">
          <mxGeometry x="95" y="320" width="70" height="30" as="geometry" />
        </mxCell>
        <mxCell id="MyNQWug4072BYo_ai6gP-12" value="" style="endArrow=none;dashed=1;html=1;rounded=0;exitX=0.5;exitY=0;exitDx=0;exitDy=0;entryX=0.5;entryY=1;entryDx=0;entryDy=0;" edge="1" parent="1" source="MyNQWug4072BYo_ai6gP-11" target="MyNQWug4072BYo_ai6gP-8">
          <mxGeometry width="50" height="50" relative="1" as="geometry">
            <mxPoint x="240" y="360" as="sourcePoint" />
            <mxPoint x="290" y="310" as="targetPoint" />
          </mxGeometry>
        </mxCell>
        <mxCell id="MyNQWug4072BYo_ai6gP-13" value="Clear Order" style="rounded=1;whiteSpace=wrap;html=1;" vertex="1" parent="1">
          <mxGeometry x="355" y="320" width="90" height="40" as="geometry" />
        </mxCell>
        <mxCell id="MyNQWug4072BYo_ai6gP-14" value="" style="endArrow=none;dashed=1;html=1;rounded=0;exitX=1;exitY=0.5;exitDx=0;exitDy=0;entryX=0;entryY=0.5;entryDx=0;entryDy=0;" edge="1" parent="1" source="MyNQWug4072BYo_ai6gP-11" target="MyNQWug4072BYo_ai6gP-13">
          <mxGeometry width="50" height="50" relative="1" as="geometry">
            <mxPoint x="230" y="370" as="sourcePoint" />
            <mxPoint x="280" y="320" as="targetPoint" />
          </mxGeometry>
        </mxCell>
      </root>
    </mxGraphModel>
  </diagram>
</mxfile>
